<?xml version="1.0" encoding="UTF-8"?>
<svg version="1.1" xmlns="http://www.w3.org/2000/svg" width="412" height="156">
<path d="M0 0 C135.96 0 271.92 0 412 0 C412 51.48 412 102.96 412 156 C276.04 156 140.08 156 0 156 C0 104.52 0 53.04 0 0 Z " fill="#EBEBFE" transform="translate(0,0)"/>
<path d="M0 0 C135.96 0 271.92 0 412 0 C412 51.48 412 102.96 412 156 C276.04 156 140.08 156 0 156 C0 104.52 0 53.04 0 0 Z M2 2 C2 52.16 2 102.32 2 154 C136.64 154 271.28 154 410 154 C410 103.84 410 53.68 410 2 C275.36 2 140.72 2 2 2 Z " fill="#9370DB" transform="translate(0,0)"/>
</svg>
